<mxfile host="app.diagrams.net" modified="2023-05-26T07:54:35.206Z" agent="Mozilla/5.0 (X11; Linux x86_64; rv:102.0) Gecko/20100101 Firefox/102.0" etag="Aj-4cjMqzIrS4FhWebaD" version="21.2.1" type="github">
  <diagram name="第 1 页" id="Cnz2bjXaFL4kkvWKrEmu">
    <mxGraphModel dx="2895" dy="659" grid="1" gridSize="10" guides="1" tooltips="1" connect="1" arrows="1" fold="1" page="1" pageScale="1" pageWidth="850" pageHeight="1100" math="0" shadow="0">
      <root>
        <mxCell id="0" />
        <mxCell id="1" parent="0" />
        <mxCell id="lnTkOZh4VK6lLw1P0NhX-2" value="&lt;div style=&quot;color: rgb(171, 178, 191); background-color: rgb(40, 44, 52); font-family: &amp;quot;Cascadia Code&amp;quot;, &amp;quot;Cascadia Code&amp;quot;, monospace, &amp;quot;Droid Sans Mono&amp;quot;, &amp;quot;monospace&amp;quot;, monospace; font-weight: normal; font-size: 15px; line-height: 20px;&quot;&gt;&lt;div&gt;SRpcMsg(STransMsg)&lt;/div&gt;&lt;/div&gt;" style="swimlane;fontStyle=0;childLayout=stackLayout;horizontal=1;startSize=26;fillColor=none;horizontalStack=0;resizeParent=1;resizeParentMax=0;resizeLast=0;collapsible=1;marginBottom=0;whiteSpace=wrap;html=1;" vertex="1" parent="1">
          <mxGeometry x="-1090" y="350" width="401" height="156" as="geometry" />
        </mxCell>
        <mxCell id="lnTkOZh4VK6lLw1P0NhX-3" value="&lt;div style=&quot;color: rgb(171, 178, 191); background-color: rgb(40, 44, 52); font-family: &amp;quot;Cascadia Code&amp;quot;, &amp;quot;Cascadia Code&amp;quot;, monospace, &amp;quot;Droid Sans Mono&amp;quot;, &amp;quot;monospace&amp;quot;, monospace; font-weight: normal; font-size: 15px; line-height: 20px;&quot;&gt;&lt;div&gt;SRpcHandleInfo info;&lt;span style=&quot;color: #7f848e;font-style: italic;&quot;&gt;//信道信息&lt;/span&gt;&lt;/div&gt;&lt;/div&gt;" style="text;strokeColor=none;fillColor=none;align=left;verticalAlign=top;spacingLeft=4;spacingRight=4;overflow=hidden;rotatable=0;points=[[0,0.5],[1,0.5]];portConstraint=eastwest;whiteSpace=wrap;html=1;" vertex="1" parent="lnTkOZh4VK6lLw1P0NhX-2">
          <mxGeometry y="26" width="401" height="26" as="geometry" />
        </mxCell>
        <mxCell id="lnTkOZh4VK6lLw1P0NhX-4" value="&lt;div style=&quot;color: rgb(171, 178, 191); background-color: rgb(40, 44, 52); font-family: &amp;quot;Cascadia Code&amp;quot;, &amp;quot;Cascadia Code&amp;quot;, monospace, &amp;quot;Droid Sans Mono&amp;quot;, &amp;quot;monospace&amp;quot;, monospace; font-weight: normal; font-size: 15px; line-height: 20px;&quot;&gt;&lt;div&gt;tmsg_t&lt;span style=&quot;color: #abb2bf;&quot;&gt;         msgType;&lt;/span&gt;&lt;span style=&quot;color: #7f848e;font-style: italic;&quot;&gt;//代表的方法&lt;/span&gt;&lt;/div&gt;&lt;/div&gt;" style="text;strokeColor=none;fillColor=none;align=left;verticalAlign=top;spacingLeft=4;spacingRight=4;overflow=hidden;rotatable=0;points=[[0,0.5],[1,0.5]];portConstraint=eastwest;whiteSpace=wrap;html=1;" vertex="1" parent="lnTkOZh4VK6lLw1P0NhX-2">
          <mxGeometry y="52" width="401" height="26" as="geometry" />
        </mxCell>
        <mxCell id="lnTkOZh4VK6lLw1P0NhX-5" value="&lt;div style=&quot;color: rgb(171, 178, 191); background-color: rgb(40, 44, 52); font-family: &amp;quot;Cascadia Code&amp;quot;, &amp;quot;Cascadia Code&amp;quot;, monospace, &amp;quot;Droid Sans Mono&amp;quot;, &amp;quot;monospace&amp;quot;, monospace; font-weight: normal; font-size: 15px; line-height: 20px;&quot;&gt;&lt;div&gt;void&lt;span style=&quot;color: #abb2bf;&quot;&gt;          &lt;/span&gt;&lt;span style=&quot;color: #c678dd;&quot;&gt;*&lt;/span&gt;&lt;span style=&quot;color: #abb2bf;&quot;&gt;pCont;&lt;/span&gt;&lt;/div&gt;&lt;/div&gt;" style="text;strokeColor=none;fillColor=none;align=left;verticalAlign=top;spacingLeft=4;spacingRight=4;overflow=hidden;rotatable=0;points=[[0,0.5],[1,0.5]];portConstraint=eastwest;whiteSpace=wrap;html=1;" vertex="1" parent="lnTkOZh4VK6lLw1P0NhX-2">
          <mxGeometry y="78" width="401" height="26" as="geometry" />
        </mxCell>
        <mxCell id="lnTkOZh4VK6lLw1P0NhX-24" value="&lt;div style=&quot;color: rgb(171, 178, 191); background-color: rgb(40, 44, 52); font-family: &amp;quot;Cascadia Code&amp;quot;, &amp;quot;Cascadia Code&amp;quot;, monospace, &amp;quot;Droid Sans Mono&amp;quot;, &amp;quot;monospace&amp;quot;, monospace; font-weight: normal; font-size: 15px; line-height: 20px;&quot;&gt;&lt;div&gt;int32_t&lt;span style=&quot;color: #abb2bf;&quot;&gt;        contLen;&lt;/span&gt;&lt;/div&gt;&lt;/div&gt;" style="text;strokeColor=none;fillColor=none;align=left;verticalAlign=top;spacingLeft=4;spacingRight=4;overflow=hidden;rotatable=0;points=[[0,0.5],[1,0.5]];portConstraint=eastwest;whiteSpace=wrap;html=1;" vertex="1" parent="lnTkOZh4VK6lLw1P0NhX-2">
          <mxGeometry y="104" width="401" height="26" as="geometry" />
        </mxCell>
        <mxCell id="lnTkOZh4VK6lLw1P0NhX-25" value="&lt;div style=&quot;color: rgb(171, 178, 191); background-color: rgb(40, 44, 52); font-family: &amp;quot;Cascadia Code&amp;quot;, &amp;quot;Cascadia Code&amp;quot;, monospace, &amp;quot;Droid Sans Mono&amp;quot;, &amp;quot;monospace&amp;quot;, monospace; font-weight: normal; font-size: 15px; line-height: 20px;&quot;&gt;&lt;div&gt;int32_t&lt;span style=&quot;color: #abb2bf;&quot;&gt;        code;&lt;/span&gt;&lt;/div&gt;&lt;/div&gt;" style="text;strokeColor=none;fillColor=none;align=left;verticalAlign=top;spacingLeft=4;spacingRight=4;overflow=hidden;rotatable=0;points=[[0,0.5],[1,0.5]];portConstraint=eastwest;whiteSpace=wrap;html=1;" vertex="1" parent="lnTkOZh4VK6lLw1P0NhX-2">
          <mxGeometry y="130" width="401" height="26" as="geometry" />
        </mxCell>
        <mxCell id="lnTkOZh4VK6lLw1P0NhX-7" value="&lt;div style=&quot;color: rgb(171, 178, 191); background-color: rgb(40, 44, 52); font-family: &amp;quot;Cascadia Code&amp;quot;, &amp;quot;Cascadia Code&amp;quot;, monospace, &amp;quot;Droid Sans Mono&amp;quot;, &amp;quot;monospace&amp;quot;, monospace; font-weight: normal; font-size: 15px; line-height: 20px;&quot;&gt;&lt;div&gt;SEpSet&lt;/div&gt;&lt;/div&gt;" style="swimlane;fontStyle=0;childLayout=stackLayout;horizontal=1;startSize=26;fillColor=none;horizontalStack=0;resizeParent=1;resizeParentMax=0;resizeLast=0;collapsible=1;marginBottom=0;whiteSpace=wrap;html=1;" vertex="1" parent="1">
          <mxGeometry x="-200" y="274" width="140" height="104" as="geometry" />
        </mxCell>
        <mxCell id="lnTkOZh4VK6lLw1P0NhX-8" value="+ field: type" style="text;strokeColor=none;fillColor=none;align=left;verticalAlign=top;spacingLeft=4;spacingRight=4;overflow=hidden;rotatable=0;points=[[0,0.5],[1,0.5]];portConstraint=eastwest;whiteSpace=wrap;html=1;" vertex="1" parent="lnTkOZh4VK6lLw1P0NhX-7">
          <mxGeometry y="26" width="140" height="26" as="geometry" />
        </mxCell>
        <mxCell id="lnTkOZh4VK6lLw1P0NhX-9" value="+ field: type" style="text;strokeColor=none;fillColor=none;align=left;verticalAlign=top;spacingLeft=4;spacingRight=4;overflow=hidden;rotatable=0;points=[[0,0.5],[1,0.5]];portConstraint=eastwest;whiteSpace=wrap;html=1;" vertex="1" parent="lnTkOZh4VK6lLw1P0NhX-7">
          <mxGeometry y="52" width="140" height="26" as="geometry" />
        </mxCell>
        <mxCell id="lnTkOZh4VK6lLw1P0NhX-10" value="+ field: type" style="text;strokeColor=none;fillColor=none;align=left;verticalAlign=top;spacingLeft=4;spacingRight=4;overflow=hidden;rotatable=0;points=[[0,0.5],[1,0.5]];portConstraint=eastwest;whiteSpace=wrap;html=1;" vertex="1" parent="lnTkOZh4VK6lLw1P0NhX-7">
          <mxGeometry y="78" width="140" height="26" as="geometry" />
        </mxCell>
        <mxCell id="lnTkOZh4VK6lLw1P0NhX-11" value="&lt;div style=&quot;color: rgb(171, 178, 191); background-color: rgb(40, 44, 52); font-family: &amp;quot;Cascadia Code&amp;quot;, &amp;quot;Cascadia Code&amp;quot;, monospace, &amp;quot;Droid Sans Mono&amp;quot;, &amp;quot;monospace&amp;quot;, monospace; font-weight: normal; font-size: 15px; line-height: 20px;&quot;&gt;&lt;div&gt;SMgmtWrapper&lt;/div&gt;&lt;/div&gt;" style="swimlane;fontStyle=0;childLayout=stackLayout;horizontal=1;startSize=26;fillColor=none;horizontalStack=0;resizeParent=1;resizeParentMax=0;resizeLast=0;collapsible=1;marginBottom=0;whiteSpace=wrap;html=1;" vertex="1" parent="1">
          <mxGeometry x="-220" y="170" width="140" height="104" as="geometry" />
        </mxCell>
        <mxCell id="lnTkOZh4VK6lLw1P0NhX-12" value="+ field: type" style="text;strokeColor=none;fillColor=none;align=left;verticalAlign=top;spacingLeft=4;spacingRight=4;overflow=hidden;rotatable=0;points=[[0,0.5],[1,0.5]];portConstraint=eastwest;whiteSpace=wrap;html=1;" vertex="1" parent="lnTkOZh4VK6lLw1P0NhX-11">
          <mxGeometry y="26" width="140" height="26" as="geometry" />
        </mxCell>
        <mxCell id="lnTkOZh4VK6lLw1P0NhX-13" value="+ field: type" style="text;strokeColor=none;fillColor=none;align=left;verticalAlign=top;spacingLeft=4;spacingRight=4;overflow=hidden;rotatable=0;points=[[0,0.5],[1,0.5]];portConstraint=eastwest;whiteSpace=wrap;html=1;" vertex="1" parent="lnTkOZh4VK6lLw1P0NhX-11">
          <mxGeometry y="52" width="140" height="26" as="geometry" />
        </mxCell>
        <mxCell id="lnTkOZh4VK6lLw1P0NhX-14" value="+ field: type" style="text;strokeColor=none;fillColor=none;align=left;verticalAlign=top;spacingLeft=4;spacingRight=4;overflow=hidden;rotatable=0;points=[[0,0.5],[1,0.5]];portConstraint=eastwest;whiteSpace=wrap;html=1;" vertex="1" parent="lnTkOZh4VK6lLw1P0NhX-11">
          <mxGeometry y="78" width="140" height="26" as="geometry" />
        </mxCell>
        <mxCell id="lnTkOZh4VK6lLw1P0NhX-15" value="&lt;div style=&quot;color: rgb(171, 178, 191); background-color: rgb(40, 44, 52); font-family: &amp;quot;Cascadia Code&amp;quot;, &amp;quot;Cascadia Code&amp;quot;, monospace, &amp;quot;Droid Sans Mono&amp;quot;, &amp;quot;monospace&amp;quot;, monospace; font-weight: normal; font-size: 15px; line-height: 20px;&quot;&gt;&lt;div&gt;SRpcHandleInfo&lt;/div&gt;&lt;/div&gt;" style="swimlane;fontStyle=0;childLayout=stackLayout;horizontal=1;startSize=26;fillColor=none;horizontalStack=0;resizeParent=1;resizeParentMax=0;resizeLast=0;collapsible=1;marginBottom=0;whiteSpace=wrap;html=1;" vertex="1" parent="1">
          <mxGeometry x="-650" y="430" width="390" height="182" as="geometry" />
        </mxCell>
        <mxCell id="lnTkOZh4VK6lLw1P0NhX-16" value="&lt;div style=&quot;color: rgb(171, 178, 191); background-color: rgb(40, 44, 52); font-family: &amp;quot;Cascadia Code&amp;quot;, &amp;quot;Cascadia Code&amp;quot;, monospace, &amp;quot;Droid Sans Mono&amp;quot;, &amp;quot;monospace&amp;quot;, monospace; font-weight: normal; font-size: 15px; line-height: 20px;&quot;&gt;&lt;div&gt;SRpcConnInfo conn;&lt;/div&gt;&lt;/div&gt;" style="text;strokeColor=none;fillColor=none;align=left;verticalAlign=top;spacingLeft=4;spacingRight=4;overflow=hidden;rotatable=0;points=[[0,0.5],[1,0.5]];portConstraint=eastwest;whiteSpace=wrap;html=1;" vertex="1" parent="lnTkOZh4VK6lLw1P0NhX-15">
          <mxGeometry y="26" width="390" height="26" as="geometry" />
        </mxCell>
        <mxCell id="lnTkOZh4VK6lLw1P0NhX-17" value="&lt;div style=&quot;color: rgb(171, 178, 191); background-color: rgb(40, 44, 52); font-family: &amp;quot;Cascadia Code&amp;quot;, &amp;quot;Cascadia Code&amp;quot;, monospace, &amp;quot;Droid Sans Mono&amp;quot;, &amp;quot;monospace&amp;quot;, monospace; font-weight: normal; font-size: 15px; line-height: 20px;&quot;&gt;&lt;div&gt;void&lt;span style=&quot;color: #abb2bf;&quot;&gt;   &lt;/span&gt;&lt;span style=&quot;color: #c678dd;&quot;&gt;*&lt;/span&gt;&lt;span style=&quot;color: #abb2bf;&quot;&gt;rsp;&lt;/span&gt;&lt;/div&gt;&lt;/div&gt;" style="text;strokeColor=none;fillColor=none;align=left;verticalAlign=top;spacingLeft=4;spacingRight=4;overflow=hidden;rotatable=0;points=[[0,0.5],[1,0.5]];portConstraint=eastwest;whiteSpace=wrap;html=1;" vertex="1" parent="lnTkOZh4VK6lLw1P0NhX-15">
          <mxGeometry y="52" width="390" height="26" as="geometry" />
        </mxCell>
        <mxCell id="lnTkOZh4VK6lLw1P0NhX-18" value="&lt;div style=&quot;color: rgb(171, 178, 191); background-color: rgb(40, 44, 52); font-family: &amp;quot;Cascadia Code&amp;quot;, &amp;quot;Cascadia Code&amp;quot;, monospace, &amp;quot;Droid Sans Mono&amp;quot;, &amp;quot;monospace&amp;quot;, monospace; font-weight: normal; font-size: 15px; line-height: 20px;&quot;&gt;&lt;div&gt; &lt;span style=&quot;color: #c678dd;&quot;&gt;void&lt;/span&gt;&lt;span style=&quot;color: #abb2bf;&quot;&gt; &lt;/span&gt;&lt;span style=&quot;color: #c678dd;&quot;&gt;*&lt;/span&gt;&lt;span style=&quot;color: #abb2bf;&quot;&gt;ahandle;&lt;/span&gt;&lt;span style=&quot;color: #7f848e;font-style: italic;&quot;&gt;  // app handle set by client&lt;/span&gt;&lt;/div&gt;&lt;/div&gt;" style="text;strokeColor=none;fillColor=none;align=left;verticalAlign=top;spacingLeft=4;spacingRight=4;overflow=hidden;rotatable=0;points=[[0,0.5],[1,0.5]];portConstraint=eastwest;whiteSpace=wrap;html=1;" vertex="1" parent="lnTkOZh4VK6lLw1P0NhX-15">
          <mxGeometry y="78" width="390" height="26" as="geometry" />
        </mxCell>
        <mxCell id="lnTkOZh4VK6lLw1P0NhX-29" value="&lt;div style=&quot;color: rgb(171, 178, 191); background-color: rgb(40, 44, 52); font-family: &amp;quot;Cascadia Code&amp;quot;, &amp;quot;Cascadia Code&amp;quot;, monospace, &amp;quot;Droid Sans Mono&amp;quot;, &amp;quot;monospace&amp;quot;, monospace; font-weight: normal; font-size: 15px; line-height: 20px;&quot;&gt;&lt;div&gt;void&lt;span style=&quot;color: #abb2bf;&quot;&gt; &lt;/span&gt;&lt;span style=&quot;color: #c678dd;&quot;&gt;*&lt;/span&gt;&lt;span style=&quot;color: #abb2bf;&quot;&gt;wrapper;&lt;/span&gt;&lt;span style=&quot;color: #7f848e;font-style: italic;&quot;&gt;  // wrapper handle&lt;/span&gt;&lt;/div&gt;&lt;/div&gt;" style="text;strokeColor=none;fillColor=none;align=left;verticalAlign=top;spacingLeft=4;spacingRight=4;overflow=hidden;rotatable=0;points=[[0,0.5],[1,0.5]];portConstraint=eastwest;whiteSpace=wrap;html=1;" vertex="1" parent="lnTkOZh4VK6lLw1P0NhX-15">
          <mxGeometry y="104" width="390" height="26" as="geometry" />
        </mxCell>
        <mxCell id="lnTkOZh4VK6lLw1P0NhX-30" value="&lt;div style=&quot;color: rgb(171, 178, 191); background-color: rgb(40, 44, 52); font-family: &amp;quot;Cascadia Code&amp;quot;, &amp;quot;Cascadia Code&amp;quot;, monospace, &amp;quot;Droid Sans Mono&amp;quot;, &amp;quot;monospace&amp;quot;, monospace; font-weight: normal; font-size: 15px; line-height: 20px;&quot;&gt;&lt;div&gt;void&lt;span style=&quot;color: #abb2bf;&quot;&gt; &lt;/span&gt;&lt;span style=&quot;color: #c678dd;&quot;&gt;*&lt;/span&gt;&lt;span style=&quot;color: #abb2bf;&quot;&gt;node;&lt;/span&gt;&lt;span style=&quot;color: #7f848e;font-style: italic;&quot;&gt;     // node mgmt handle&lt;/span&gt;&lt;/div&gt;&lt;/div&gt;" style="text;strokeColor=none;fillColor=none;align=left;verticalAlign=top;spacingLeft=4;spacingRight=4;overflow=hidden;rotatable=0;points=[[0,0.5],[1,0.5]];portConstraint=eastwest;whiteSpace=wrap;html=1;" vertex="1" parent="lnTkOZh4VK6lLw1P0NhX-15">
          <mxGeometry y="130" width="390" height="26" as="geometry" />
        </mxCell>
        <mxCell id="lnTkOZh4VK6lLw1P0NhX-31" value="&lt;div style=&quot;color: rgb(171, 178, 191); background-color: rgb(40, 44, 52); font-family: &amp;quot;Cascadia Code&amp;quot;, &amp;quot;Cascadia Code&amp;quot;, monospace, &amp;quot;Droid Sans Mono&amp;quot;, &amp;quot;monospace&amp;quot;, monospace; font-weight: normal; font-size: 15px; line-height: 20px;&quot;&gt;&lt;div&gt;void&lt;span style=&quot;color: #abb2bf;&quot;&gt;   &lt;/span&gt;&lt;span style=&quot;color: #c678dd;&quot;&gt;*&lt;/span&gt;&lt;span style=&quot;color: #abb2bf;&quot;&gt;handle;&lt;/span&gt;&lt;span style=&quot;color: #7f848e;font-style: italic;&quot;&gt;         // rpc handle returned to app&lt;/span&gt;&lt;/div&gt;&lt;/div&gt;" style="text;strokeColor=none;fillColor=none;align=left;verticalAlign=top;spacingLeft=4;spacingRight=4;overflow=hidden;rotatable=0;points=[[0,0.5],[1,0.5]];portConstraint=eastwest;whiteSpace=wrap;html=1;" vertex="1" parent="lnTkOZh4VK6lLw1P0NhX-15">
          <mxGeometry y="156" width="390" height="26" as="geometry" />
        </mxCell>
        <mxCell id="lnTkOZh4VK6lLw1P0NhX-20" value="&lt;div style=&quot;color: rgb(171, 178, 191); background-color: rgb(40, 44, 52); font-family: &amp;quot;Cascadia Code&amp;quot;, &amp;quot;Cascadia Code&amp;quot;, monospace, &amp;quot;Droid Sans Mono&amp;quot;, &amp;quot;monospace&amp;quot;, monospace; font-weight: normal; font-size: 15px; line-height: 20px;&quot;&gt;&lt;div&gt;SExHandle&lt;/div&gt;&lt;/div&gt;" style="swimlane;fontStyle=0;childLayout=stackLayout;horizontal=1;startSize=26;fillColor=none;horizontalStack=0;resizeParent=1;resizeParentMax=0;resizeLast=0;collapsible=1;marginBottom=0;whiteSpace=wrap;html=1;" vertex="1" parent="1">
          <mxGeometry x="-220" y="547" width="140" height="104" as="geometry" />
        </mxCell>
        <mxCell id="lnTkOZh4VK6lLw1P0NhX-21" value="&lt;div style=&quot;color: rgb(171, 178, 191); background-color: rgb(40, 44, 52); font-family: &amp;quot;Cascadia Code&amp;quot;, &amp;quot;Cascadia Code&amp;quot;, monospace, &amp;quot;Droid Sans Mono&amp;quot;, &amp;quot;monospace&amp;quot;, monospace; font-weight: normal; font-size: 15px; line-height: 20px;&quot;&gt;&lt;div&gt;void*&lt;span style=&quot;color: #abb2bf;&quot;&gt;   handle;&lt;/span&gt;&lt;/div&gt;&lt;/div&gt;" style="text;strokeColor=none;fillColor=none;align=left;verticalAlign=top;spacingLeft=4;spacingRight=4;overflow=hidden;rotatable=0;points=[[0,0.5],[1,0.5]];portConstraint=eastwest;whiteSpace=wrap;html=1;" vertex="1" parent="lnTkOZh4VK6lLw1P0NhX-20">
          <mxGeometry y="26" width="140" height="26" as="geometry" />
        </mxCell>
        <mxCell id="lnTkOZh4VK6lLw1P0NhX-22" value="&lt;div style=&quot;color: rgb(171, 178, 191); background-color: rgb(40, 44, 52); font-family: &amp;quot;Cascadia Code&amp;quot;, &amp;quot;Cascadia Code&amp;quot;, monospace, &amp;quot;Droid Sans Mono&amp;quot;, &amp;quot;monospace&amp;quot;, monospace; font-weight: normal; font-size: 15px; line-height: 20px;&quot;&gt;&lt;div&gt;void*&lt;span style=&quot;color: #abb2bf;&quot;&gt;   pThrd;&lt;/span&gt;&lt;/div&gt;&lt;/div&gt;" style="text;strokeColor=none;fillColor=none;align=left;verticalAlign=top;spacingLeft=4;spacingRight=4;overflow=hidden;rotatable=0;points=[[0,0.5],[1,0.5]];portConstraint=eastwest;whiteSpace=wrap;html=1;" vertex="1" parent="lnTkOZh4VK6lLw1P0NhX-20">
          <mxGeometry y="52" width="140" height="26" as="geometry" />
        </mxCell>
        <mxCell id="lnTkOZh4VK6lLw1P0NhX-23" value="+ field: type" style="text;strokeColor=none;fillColor=none;align=left;verticalAlign=top;spacingLeft=4;spacingRight=4;overflow=hidden;rotatable=0;points=[[0,0.5],[1,0.5]];portConstraint=eastwest;whiteSpace=wrap;html=1;" vertex="1" parent="lnTkOZh4VK6lLw1P0NhX-20">
          <mxGeometry y="78" width="140" height="26" as="geometry" />
        </mxCell>
        <mxCell id="lnTkOZh4VK6lLw1P0NhX-32" style="edgeStyle=orthogonalEdgeStyle;rounded=0;orthogonalLoop=1;jettySize=auto;html=1;" edge="1" parent="1" source="lnTkOZh4VK6lLw1P0NhX-31" target="lnTkOZh4VK6lLw1P0NhX-20">
          <mxGeometry relative="1" as="geometry" />
        </mxCell>
        <mxCell id="lnTkOZh4VK6lLw1P0NhX-33" style="edgeStyle=orthogonalEdgeStyle;rounded=0;orthogonalLoop=1;jettySize=auto;html=1;exitX=1;exitY=0.5;exitDx=0;exitDy=0;" edge="1" parent="1" source="lnTkOZh4VK6lLw1P0NhX-3" target="lnTkOZh4VK6lLw1P0NhX-15">
          <mxGeometry relative="1" as="geometry" />
        </mxCell>
      </root>
    </mxGraphModel>
  </diagram>
</mxfile>
